<?xml version="1.0" encoding="UTF-8"?>
<!DOCTYPE svg PUBLIC "-//W3C//DTD SVG 1.1//EN" "http://www.w3.org/Graphics/SVG/1.1/DTD/svg11.dtd">
<svg xmlns="http://www.w3.org/2000/svg" version="1.1" width="512px" height="512px" style="shape-rendering:geometricPrecision; text-rendering:geometricPrecision; image-rendering:optimizeQuality; fill-rule:evenodd; clip-rule:evenodd" xmlns:xlink="http://www.w3.org/1999/xlink">
<g><path style="opacity:0.991" fill="#fdfdfd" d="M 219.5,-0.5 C 242.833,-0.5 266.167,-0.5 289.5,-0.5C 381.052,15.1808 447.552,64.5141 489,147.5C 500.263,173.232 507.763,199.899 511.5,227.5C 511.5,245.833 511.5,264.167 511.5,282.5C 496.997,380.372 444.997,450.205 355.5,492C 331.84,501.496 307.507,507.996 282.5,511.5C 264.5,511.5 246.5,511.5 228.5,511.5C 124.259,496.419 52.4255,440.086 13,342.5C 7.21715,325.364 2.71715,308.03 -0.5,290.5C -0.5,267.167 -0.5,243.833 -0.5,220.5C 13.4327,136.767 56.7661,73.2671 129.5,30C 157.947,14.907 187.947,4.74036 219.5,-0.5 Z M 316.5,157.5 C 326.172,157.334 335.839,157.5 345.5,158C 346.737,158.232 347.737,158.732 348.5,159.5C 324.699,186.14 301.032,212.973 277.5,240C 305.716,276.71 333.716,313.543 361.5,350.5C 358.695,351.319 355.695,351.819 352.5,352C 333.836,352.5 315.17,352.667 296.5,352.5C 279.251,329.683 261.751,307.016 244,284.5C 223.756,306.073 204.256,328.24 185.5,351C 174.217,352.55 162.883,352.883 151.5,352C 177.874,323.229 203.54,293.895 228.5,264C 201.742,228.487 174.742,193.153 147.5,158C 170.525,157.113 193.525,157.447 216.5,159C 230.998,179.504 246.331,199.338 262.5,218.5C 281.673,199.115 299.673,178.782 316.5,157.5 Z"/></g>
<g><path style="opacity:0.416" fill="#767676" d="M 316.5,157.5 C 327.674,156.176 339.007,156.176 350.5,157.5C 350.145,158.522 349.478,159.189 348.5,159.5C 347.737,158.732 346.737,158.232 345.5,158C 335.839,157.5 326.172,157.334 316.5,157.5 Z"/></g>
<g><path style="opacity:0.989" fill="#ededed" d="M 321.5,330.5 C 321.389,331.117 321.056,331.617 320.5,332C 315.511,332.499 310.511,332.666 305.5,332.5C 265.03,280.519 224.697,228.352 184.5,176C 190.723,174.419 197.056,174.085 203.5,175C 205.286,175.785 206.786,176.951 208,178.5C 246.095,229.047 283.928,279.714 321.5,330.5 Z"/></g>
<g><path style="opacity:0.341" fill="#676767" d="M 321.5,330.5 C 322.478,330.811 323.145,331.478 323.5,332.5C 317.398,335.071 311.398,335.071 305.5,332.5C 310.511,332.666 315.511,332.499 320.5,332C 321.056,331.617 321.389,331.117 321.5,330.5 Z"/></g>
<g><path style="opacity:0.413" fill="#868686" d="M 361.5,350.5 C 362.478,350.811 363.145,351.478 363.5,352.5C 341.004,353.828 318.67,353.828 296.5,352.5C 315.17,352.667 333.836,352.5 352.5,352C 355.695,351.819 358.695,351.319 361.5,350.5 Z"/></g>
</svg>
